<?xml version="1.0" encoding="UTF-8"?>
<svg id="Layer_3" data-name="Layer 3" xmlns="http://www.w3.org/2000/svg" viewBox="0 0 390.58 476.94">
  <defs>
    <style>
      .cls-1 {
        font-family: Poppins-Black, Poppins;
        font-size: 60.67px;
        isolation: isolate;
      }
    </style>
  </defs>
  <text class="cls-1" transform="translate(0 438.9)"><tspan x="0" y="0">SANCTUARY</tspan></text>
  <g>
    <g>
      <path d="M131.05,24.14c20.35-8.34,42.59-13.02,65.85-13.02,95.55,0,172.9,77.48,172.9,172.9,0,55.74-26.42,105.41-67.37,137.01l5.56,9.61c44.24-33.62,72.8-86.83,72.8-146.62C380.8,82.41,298.39,0,196.77,0c-25.28,0-49.42,5.18-71.41,14.41l5.69,9.73h0Z"/>
      <path d="M262.75,344.17c-20.22,8.34-42.47,12.89-65.72,12.89-95.55,0-172.9-77.48-172.9-172.9,0-55.74,26.29-105.28,67.24-136.88l-5.56-9.61C41.56,71.29,13.12,124.37,13.12,184.15c0,101.62,82.41,184.03,184.03,184.03,25.28,0,49.42-5.06,71.29-14.28l-5.69-9.73Z"/>
    </g>
    <path d="M196.9,27.68c-86.33,0-156.35,70.02-156.35,156.35s70.02,156.47,156.35,156.47,156.35-70.02,156.35-156.35S283.22,27.68,196.9,27.68Zm0,294.49l-119.57-69.01V115.02L196.9,46.01l119.57,69.01V253.16l-119.57,69.01Z"/>
    <polygon points="288.91 237.24 288.91 130.94 196.9 77.86 104.89 130.94 104.89 237.24 196.9 290.32 288.91 237.24"/>
  </g>
</svg>