<?xml version="1.0" encoding="UTF-8"?>
<svg id="Layer_1" data-name="Layer 1" xmlns="http://www.w3.org/2000/svg" viewBox="0 0 1000 1000">
  <defs>
    <style>
      .cls-1 {
        fill: #cf2727;
      }

      .cls-2 {
        fill: #f0efef;
      }

      .cls-3 {
        fill: none;
        stroke: #cf2727;
        stroke-miterlimit: 10;
        stroke-width: 50px;
      }
    </style>
  </defs>
  <path class="cls-2" d="m394.85,479.44l27.68-25.44c11.03-10.12,22.07-20.24,33.1-30.35,6.92-6.37,13.79-12.79,20.7-19.16,8.96-8.26,17.93-16.51,26.9-24.74l28.42-26.19c.76-.71,1.48-1.47,2.21-2.22.3-.46.92-.6,1.38-.3.03.02.07.05.1.07.57.32.84,1,.64,1.62-1.8,5.49-3.62,11-5.36,16.48-1.55,4.87-3,9.77-4.51,14.65s-3.14,10-4.71,15-3.14,10-4.72,15-3.26,10.14-4.84,15.14c-1.3,4.16-2.51,8.35-3.81,12.5s-2.76,8.52-4.1,12.78-2.53,8.33-3.83,12.48-2.74,8.52-4.09,12.79c-1.29,4.08-2.59,8.17-3.82,12.27-.58,2.37-1.84,4.53-3.62,6.2-12.46,11.24-24.76,22.65-37.14,34-11.05,10.1-22.12,20.17-33.21,30.21-7.93,7.18-15.85,14.4-23.76,21.65-13.64,12.43-27.28,24.84-40.91,37.25-2.57,2.32-5.21,4.56-7.81,7.24l-69.13-155.1c-1.31,2.2-1.68,4.67-2.46,7-1.67,4.84-3.15,9.73-4.75,14.73s-3.09,9.59-4.65,14.39c-1.63,5-3.16,10.11-4.89,15.12-1.9,5.54-3.48,11.19-5.23,16.77-1.52,4.81-3.08,9.59-4.63,14.38-1.81,5.62-3.63,11.24-5.44,16.85-1.85,5.69-3.72,11.37-5.54,17.06-1.55,4.86-3,9.75-4.57,14.61s-3.14,9.72-4.71,14.57-3.16,9.72-4.72,14.58c-1.79,5.63-3.56,11.27-5.35,16.91s-3.62,11.4-5.49,17.09c-.86,2.59-1.89,5.12-2.8,7.7-.13.56-.67.93-1.24.85h-97.21c-2.64,0-2.66,0-2-2.61,1.52-6.09,3.5-12,5.53-18,2.13-6.25,4-12.6,6-18.89s4.2-12.48,6.24-18.73c1.82-5.57,3.52-11.18,5.31-16.75,1.5-4.66,3-9.29,4.56-13.94l4.8-14.77,4.58-14.12c1.83-5.64,3.66-11.28,5.51-16.91,1.82-5.56,3.69-11.1,5.49-16.67,1.57-4.84,3.06-9.71,4.63-14.56,1.76-5.45,3.56-10.88,5.36-16.31,1.57-4.77,3.18-9.53,4.72-14.31,1.79-5.57,3.48-11.17,5.31-16.73,1.88-5.73,3.79-11.45,5.58-17.21,2-6.32,4.25-12.54,6.3-18.82s3.95-12.57,6-18.84c1.77-5.49,3.65-11,5.45-16.45s3.54-11,5.34-16.53,3.71-11.21,5.53-16.82,3.5-11.05,5.29-16.56c1.34-4.11,2.77-8.19,4.13-12.29.41-1.23,1.44-4.88,2.31-4.88h1.25c32.41,0,64.81-.02,97.22-.05,1.51-.17,2.94.71,3.46,2.14,5.65,11.73,10.69,23.72,15.94,35.62,3.21,7.26,6.51,14.49,9.74,21.74,6.57,14.76,13.13,29.53,19.66,44.3,5.73,12.97,11.45,25.94,17.16,38.93l5.52,12.58Z"/>
  <path class="cls-1" d="m889.44,324.27c-3.64,4.26-7.69,7.43-11.61,10.72-5.06,4.24-10.18,8.41-15.26,12.62-4.86,4-9.7,8.11-14.56,12.15-6.72,5.61-13.45,11.21-20.18,16.79-6.41,5.31-12.86,10.59-19.26,15.91-4.92,4.08-9.78,8.23-14.7,12.32-6.57,5.44-13.19,10.83-19.75,16.29-4.81,4-9.56,8.06-14.37,12.06-6.61,5.51-13.26,11-19.88,16.5-4.91,4.09-9.78,8.22-14.7,12.3-6.57,5.45-13.19,10.86-19.76,16.31-4.76,3.95-9.47,7.94-14.2,11.91-2,1.7-4,3.47-6.07,5.08-.8.61-.86.85-.36,1.76,4.79,8.8,9.5,17.65,14.23,26.48,8.06,15.07,16.11,30.13,24.16,45.2,7.81,14.59,15.63,29.18,23.46,43.77,4.81,9,9.56,18,14.36,27,5,9.45,10.13,18.87,15.17,28.32,1.17,2.18,2.15,4.46,3.3,6.64.59,1.12.35,1.5-.87,1.42h-1.67c-36.74,0-73.47.03-110.2.08-2.09.19-4.05-1.01-4.85-2.94-4.33-8.13-8.74-16.21-13-24.35-6.12-11.52-12.14-23.08-18.27-34.6-7.6-14.3-15.27-28.56-22.88-42.85-4.41-8.28-8.73-16.61-13.13-24.89-9.14-17.16-18.3-34.31-27.49-51.45-.86-1.61-.73-2.6.83-3.84,5.93-4.69,11.7-9.59,17.56-14.38s12-9.68,18-14.56,12.1-10.04,18.22-15.04,12.37-10.07,18.55-15.11c6-4.87,11.97-9.75,17.9-14.62,4.73-3.86,9.46-7.73,14.19-11.6,6-4.85,12-9.67,17.94-14.54s11.57-9.55,17.37-14.31c6.06-5,12.16-9.89,18.23-14.85,5.7-4.65,11.38-9.33,17.08-14,6.24-5.09,12.52-10.13,18.74-15.24,3-2.47,5.91-5.06,8.85-7.6.79-.68,1.81-1.04,2.85-1h114c.51.04,1.05.09,2.03.14Z"/>
  <path class="cls-2" d="m615.43,324.16h49.23c1.92,0,2.31.24,1.69,2.28-2.72,9-5.72,17.81-8.71,26.67-2.32,6.87-4.42,13.8-6.69,20.68-1.78,5.42-3.7,10.79-5.5,16.2-1.57,4.69-3.05,9.41-4.57,14.12-1.22,3.79-2.4,7.6-3.71,11.36-.39.81-.95,1.53-1.65,2.1-6.06,5.84-12.73,11-19.25,16.28-5.8,4.72-11.54,9.54-17.34,14.27-6.08,5-12.22,9.85-18.3,14.81-4.35,3.55-8.65,7.17-13,10.74-6,4.88-11.91,9.78-17.92,14.6-2.45,2-2.52,1.91-1,4.65,7.73,14.23,15.45,28.47,23.18,42.7,4.51,8.31,9,16.65,13.48,25,.38.57.8,1.12,1.26,1.63,1.55,2,.67,4.1,0,6.09-3,8.68-5.76,17.41-8.64,26.11-2.63,8-5.23,15.93-7.91,23.88-3.68,10.91-7.32,21.83-10.84,32.79-2.22,6.9-4.66,13.71-7,20.57-.08.41-.12.82-.14,1.23-.42,2.49-1,3-3.55,3h-96.18c-2.55,0-2.57-.12-1.76-2.6,1.83-5.63,3.52-11.31,5.36-16.94,2.06-6.34,4.25-12.64,6.31-19s3.92-12.6,5.94-18.89c1.54-4.77,3.2-9.5,4.75-14.27,1.82-5.64,3.55-11.31,5.37-16.95s3.6-11,5.38-16.5,3.6-11.25,5.42-16.87c1.55-4.8,3.13-9.59,4.7-14.38,1.79-5.49,3.59-10.98,5.39-16.46,1.63-5,3.29-9.92,4.88-14.9,1.79-5.59,3.49-11.21,5.29-16.8s3.63-11,5.41-16.45,3.56-11.27,5.38-16.89,3.67-11.13,5.48-16.71,3.54-11.13,5.35-16.68c1.57-4.85,3.21-9.68,4.79-14.52,1.78-5.45,3.53-10.9,5.29-16.35,1.57-4.9,3.11-9.81,4.69-14.7,1.8-5.59,3.61-11.17,5.43-16.74,2.12-6.47,4.27-12.92,6.37-19.39,1.52-4.7,3-9.43,4.47-14.14.1-.25.19-.51.27-.77.65-3.56,3-3.89,6.17-3.85,15.64.08,31.28,0,46.93,0Z"/>
  <circle class="cls-3" cx="500" cy="500" r="475"/>
</svg>