<svg xmlns="http://www.w3.org/2000/svg" version="1.1" xmlns:xlink="http://www.w3.org/1999/xlink" xmlns:svgjs="http://svgjs.com/svgjs" width="1920" height="1080" preserveAspectRatio="none" viewBox="0 0 1920 1080"><g mask="url(&quot;#SvgjsMask1674&quot;)" fill="none"><rect width="1920" height="1080" x="0" y="0" fill="url(#SvgjsLinearGradient1675)"></rect><path d="M17.76 270C15.66 245.36 1.62 248.06 0 223.45C-7.26 113.06 -61.13 50.59 0 0C73.87 -61.13 135 0 270 0C396 0 402.4 -11.96 522 0C537.4 1.54 524.62 27 540 27C668.62 27 675 13.5 810 0C810 0 810 0 810 0C945 0 945 0 1080 0C1215 0 1215 0 1350 0C1485 0 1485 0 1620 0C1755 0 1755 0 1890 0C1983.46 0 2034.86 -55.15 2076.92 0C2137.82 79.85 2065.83 143.02 2095.93 270C2107.37 318.24 2148.73 302.95 2160 350.43C2180.77 437.95 2160 445.22 2160 540C2160 675 2160 675 2160 810C2160 945 2227.5 1012.5 2160 1080C2092.5 1147.5 2025 1080 1890 1080C1755 1080 1755 1080 1620 1080C1485 1080 1485 1080 1350 1080C1215 1080 1215 1080 1080 1080C945 1080 945 1080 810 1080C675 1080 675 1080 540 1080C411.43 1080 282.86 1128.31 282.86 1080C282.86 1015.81 411.86 967.98 540 855C564.97 832.98 566.59 834.51 589.09 810C701.59 687.4 700.04 685.8 810 560.77C818.76 550.8 826.53 549.34 826.53 540C826.53 532.72 819.71 531.01 810 527.54C676.45 479.81 663.4 433.46 540 437.59C477.2 439.69 488.8 488.8 437.59 540C353.8 623.8 359.74 630.93 270 707.59C201.7 765.93 124.66 740.13 121.5 810C116.23 926.34 286.1 1006.74 253.13 1080C225.35 1141.74 61.24 1145.32 0 1080C-65.32 1010.32 0 945 0 810C0 699.55 -10.77 696.78 0 589.09C2.73 561.78 25.47 567.4 27 540C34.35 407.86 29.16 403.63 17.76 270" stroke="rgba(255, 255, 255, 0.72)" stroke-width="2"></path><path d="M1080 254.35C1069.79 254.35 1063.64 261.52 1063.64 270C1063.64 280.15 1068.61 291.6 1080 291.6C1106.79 291.6 1140 279.44 1140 270C1140 260.82 1107.97 254.35 1080 254.35" stroke="rgba(255, 255, 255, 0.72)" stroke-width="2"></path><path d="M1620 332.31C1506 332.31 1362.86 463.74 1362.86 540C1362.86 601.34 1494.42 607.5 1620 607.5C1695.96 607.5 1765.95 593.36 1765.95 540C1765.95 455.77 1707.55 332.31 1620 332.31" stroke="rgba(255, 255, 255, 0.72)" stroke-width="2"></path><path d="M1080 731.08C1031.66 731.08 986.73 766.26 986.73 810C986.73 862.72 1030.84 924 1080 924C1133.23 924 1191.52 861.95 1191.52 810C1191.52 765.49 1134.05 731.08 1080 731.08" stroke="rgba(255, 255, 255, 0.72)" stroke-width="2"></path><path d="M106.58 270C59.51 134.31 -34.33 70.66 8.44 0C47.38 -64.34 139.22 0 270 0C339.75 0 359.25 -36.43 409.5 0C494.25 61.44 449.21 171.07 540 195.75C649.46 225.5 687.86 172.82 810 108.87C874.79 74.95 849.7 25.87 913.85 0C984.7 -28.57 996.93 0 1080 0C1215 0 1215 0 1350 0C1485 0 1485 0 1620 0C1755 0 1755 0 1890 0C1940.19 0 1977.98 -36.57 1990.38 0C2023.75 98.43 2009.57 140.73 1981.53 270C1959.38 372.16 1944.44 462.86 1890 462.86C1829.45 462.86 1822.95 364.78 1751.54 270C1687.95 185.61 1707.44 130.39 1620 104.52C1506.67 70.99 1485.98 138.11 1350 151.2C1215.98 164.11 1200.85 119.58 1080 156.52C1006.53 178.98 961.36 208.53 961.36 270C961.36 343.57 1014.34 354.13 1080 426.6C1136.66 489.13 1206 487.31 1206 540C1206 587.63 1142.12 627.23 1080 627.23C1021.26 627.23 1022.15 583.61 964.29 540C887.15 481.84 895.04 467.54 810 423.69C682.89 358.15 657.99 293.13 540 321.21C413.59 351.29 430.61 430.61 321.21 540C295.61 565.61 297.94 591.21 270 591.21C235.21 591.21 215.43 578.68 195.75 540C133.72 418.07 153.17 404.31 106.58 270" stroke="rgba(255, 255, 255, 0.72)" stroke-width="2"></path><path d="M2025 540C2091.85 515.25 2108.95 494.04 2160 494.04C2176.45 494.04 2160 517.02 2160 540C2160 607.5 2173 610 2160 675C2146 745 2118.58 739.22 2106 810C2082.58 941.72 2150.37 1002.04 2088 1080C2042.37 1137.04 1989 1080 1890 1080C1809.73 1080 1802.5 1101.91 1729.46 1080C1667.5 1061.41 1676.99 999 1620 999C1552.43 999 1555.04 1057.59 1480.34 1080C1420.04 1098.09 1415.17 1080 1350 1080C1215 1080 1215 1080 1080 1080C945 1080 945 1080 810 1080C675 1080 675 1080 540 1080C491.78 1080 443.57 1098.12 443.57 1080C443.57 1055.93 492.46 1038.57 540 995.63C641.93 903.57 643.99 905.51 742.5 810C778.99 774.62 778.32 733.85 810 733.85C839.07 733.85 834.99 773.46 864 810C969.99 943.53 966.14 1074 1080 1074C1203.27 1074 1211.45 943.74 1338.26 810C1346.45 801.36 1339.19 793.76 1350 789.23C1480.06 734.7 1485.04 740.67 1620 691.88C1755.04 643.06 1755.56 644.42 1890 594C1958.06 568.48 1956.85 565.23 2025 540" stroke="rgba(255, 255, 255, 0.72)" stroke-width="2"></path><path d="M0 967.5C10.89 967.5 42.19 1038.37 42.19 1080C42.19 1094.62 5.75 1095.34 0 1080C-15.34 1039.09 -10.2 967.5 0 967.5" stroke="rgba(255, 255, 255, 0.72)" stroke-width="2"></path><path d="M195.39 270C180.12 139.72 187.95 113.76 219.38 0C225.25 -21.24 244.69 0 270 0C283.5 0 290.35 -11.08 297 0C371.35 123.92 439.68 147.2 432 270C426.18 363.2 336.52 432 270 432C218.21 432 205.43 355.72 195.39 270" stroke="rgba(255, 255, 255, 0.72)" stroke-width="2"></path><path d="M685.38 270C685.38 244.39 753.25 217.74 810 217.74C840.11 217.74 859.09 244.16 859.09 270C859.09 295.21 839.76 319.85 810 319.85C752.91 319.85 685.38 295.44 685.38 270" stroke="rgba(255, 255, 255, 0.72)" stroke-width="2"></path><path d="M1080 58.7C1042.97 58.7 1017.69 16.99 1017.69 0C1017.69 -12.36 1048.85 0 1080 0C1157.89 0 1235.77 -14.19 1235.77 0C1235.77 15.16 1152.01 58.7 1080 58.7" stroke="rgba(255, 255, 255, 0.72)" stroke-width="2"></path><path d="M1890 120C1869.53 120 1826.47 40.87 1826.47 0C1826.47 -19.13 1858.24 0 1890 0C1896.93 0 1903.85 -6.17 1903.85 0C1903.85 53.83 1908.22 120 1890 120" stroke="rgba(255, 255, 255, 0.72)" stroke-width="2"></path><path d="M1538.18 810C1538.18 789.18 1576.61 782.08 1620 776.25C1752.52 758.45 1762.81 749.22 1890 762.75C1921.44 766.09 1937.25 779.83 1937.25 810C1937.25 897.96 1952.22 988.41 1890 999C1793.59 1015.41 1752.79 935.33 1620 864C1576.88 840.83 1538.18 833.06 1538.18 810" stroke="rgba(255, 255, 255, 0.72)" stroke-width="2"></path><path d="M657.39 1080C657.39 1043.09 741.36 950 810 950C865.1 950 904.86 1039.11 904.86 1080C904.86 1104.11 857.43 1080 810 1080C733.69 1080 657.39 1108.09 657.39 1080" stroke="rgba(255, 255, 255, 0.72)" stroke-width="2"></path></g><defs><mask id="SvgjsMask1674"><rect width="1920" height="1080" fill="#ffffff"></rect></mask><linearGradient x1="50%" y1="0%" x2="50%" y2="100%" gradientUnits="userSpaceOnUse" id="SvgjsLinearGradient1675"><stop stop-color="rgba(22, 22, 22, 1)" offset="0"></stop><stop stop-color="rgba(52, 52, 52, 1)" offset="1"></stop></linearGradient></defs></svg>